<?xml version="1.0" encoding="UTF-8" standalone="no"?>
<!DOCTYPE svg PUBLIC "-//W3C//DTD SVG 1.1//EN"
 "http://www.w3.org/Graphics/SVG/1.1/DTD/svg11.dtd">
<!-- Generated by graphviz version 14.1.5 (20260411.2331)
 -->
<!-- Pages: 1 -->
<svg width="1322pt" height="74pt"
 viewBox="0.00 0.00 1322.00 74.00" xmlns="http://www.w3.org/2000/svg" xmlns:xlink="http://www.w3.org/1999/xlink">
<g id="graph0" class="graph" transform="scale(1 1) rotate(0) translate(4 70)">
<polygon fill="white" stroke="none" points="-4,4 -4,-70 1318.25,-70 1318.25,4 -4,4"/>
<!-- flow&#45;node&#45;ed505a04&#45;1b16&#45;4e8a&#45;9040&#45;07c75f2c00bf -->
<g id="node1" class="node">
<title>flow&#45;node&#45;ed505a04&#45;1b16&#45;4e8a&#45;9040&#45;07c75f2c00bf</title>
<polygon fill="#4a90d9" stroke="#2c6fac" points="301,-66 0,-66 0,-25 301,-25 301,-66"/>
<text xml:space="preserve" text-anchor="middle" x="150.5" y="-48.7" font-family="Times New Roman,serif" font-size="14.00" fill="white">flow&#45;node&#45;ed505a04&#45;1b16&#45;4e8a&#45;9040&#45;07c75f2c00bf</text>
<text xml:space="preserve" text-anchor="middle" x="150.5" y="-32.2" font-family="Times New Roman,serif" font-size="14.00" fill="white">document_upload</text>
</g>
<!-- flow&#45;node&#45;6cd6def3&#45;a9c6&#45;4e29&#45;9417&#45;cf812b3945dd -->
<g id="node2" class="node">
<title>flow&#45;node&#45;6cd6def3&#45;a9c6&#45;4e29&#45;9417&#45;cf812b3945dd</title>
<polygon fill="none" stroke="black" points="638,-66 337,-66 337,-25 638,-25 638,-66"/>
<text xml:space="preserve" text-anchor="middle" x="487.5" y="-48.7" font-family="Times New Roman,serif" font-size="14.00">flow&#45;node&#45;6cd6def3&#45;a9c6&#45;4e29&#45;9417&#45;cf812b3945dd</text>
<text xml:space="preserve" text-anchor="middle" x="487.5" y="-32.2" font-family="Times New Roman,serif" font-size="14.00">document_upload</text>
</g>
<!-- flow&#45;node&#45;ed505a04&#45;1b16&#45;4e8a&#45;9040&#45;07c75f2c00bf&#45;&gt;flow&#45;node&#45;6cd6def3&#45;a9c6&#45;4e29&#45;9417&#45;cf812b3945dd -->
<g id="edge1" class="edge">
<title>flow&#45;node&#45;ed505a04&#45;1b16&#45;4e8a&#45;9040&#45;07c75f2c00bf&#45;&gt;flow&#45;node&#45;6cd6def3&#45;a9c6&#45;4e29&#45;9417&#45;cf812b3945dd</title>
<path fill="none" stroke="black" d="M301.36,-38.78C309.36,-38.75 317.4,-38.74 325.43,-38.75"/>
<polygon fill="black" stroke="black" points="325.23,-42.25 335.24,-38.78 325.25,-35.25 325.23,-42.25"/>
</g>
<!-- flow&#45;node&#45;ed505a04&#45;1b16&#45;4e8a&#45;9040&#45;07c75f2c00bf&#45;&gt;flow&#45;node&#45;6cd6def3&#45;a9c6&#45;4e29&#45;9417&#45;cf812b3945dd -->
<g id="edge3" class="edge">
<title>flow&#45;node&#45;ed505a04&#45;1b16&#45;4e8a&#45;9040&#45;07c75f2c00bf&#45;&gt;flow&#45;node&#45;6cd6def3&#45;a9c6&#45;4e29&#45;9417&#45;cf812b3945dd</title>
<path fill="none" stroke="black" d="M301.36,-52.22C309.36,-52.25 317.4,-52.26 325.43,-52.25"/>
<polygon fill="black" stroke="black" points="325.25,-55.75 335.24,-52.22 325.23,-48.75 325.25,-55.75"/>
</g>
<!-- flow&#45;node&#45;9743bbc6&#45;14d6&#45;44b5&#45;9975&#45;41e2cf50851b -->
<g id="node3" class="node">
<title>flow&#45;node&#45;9743bbc6&#45;14d6&#45;44b5&#45;9975&#45;41e2cf50851b</title>
<polygon fill="none" stroke="black" points="979.5,-41 674,-41 674,0 979.5,0 979.5,-41"/>
<text xml:space="preserve" text-anchor="middle" x="826.75" y="-23.7" font-family="Times New Roman,serif" font-size="14.00">flow&#45;node&#45;9743bbc6&#45;14d6&#45;44b5&#45;9975&#45;41e2cf50851b</text>
<text xml:space="preserve" text-anchor="middle" x="826.75" y="-7.2" font-family="Times New Roman,serif" font-size="14.00">document_upload</text>
</g>
<!-- flow&#45;node&#45;ed505a04&#45;1b16&#45;4e8a&#45;9040&#45;07c75f2c00bf&#45;&gt;flow&#45;node&#45;9743bbc6&#45;14d6&#45;44b5&#45;9975&#45;41e2cf50851b -->
<g id="edge2" class="edge">
<title>flow&#45;node&#45;ed505a04&#45;1b16&#45;4e8a&#45;9040&#45;07c75f2c00bf&#45;&gt;flow&#45;node&#45;9743bbc6&#45;14d6&#45;44b5&#45;9975&#45;41e2cf50851b</title>
<path fill="none" stroke="black" d="M267.45,-24.55C290.42,-21.19 314.41,-18.25 337,-16.5 445.12,-8.1 567.1,-9.08 662.16,-12.18"/>
<polygon fill="black" stroke="black" points="661.99,-15.67 672.1,-12.51 662.22,-8.68 661.99,-15.67"/>
</g>
<!-- flow&#45;node&#45;6cd6def3&#45;a9c6&#45;4e29&#45;9417&#45;cf812b3945dd&#45;&gt;flow&#45;node&#45;9743bbc6&#45;14d6&#45;44b5&#45;9975&#45;41e2cf50851b -->
<g id="edge4" class="edge">
<title>flow&#45;node&#45;6cd6def3&#45;a9c6&#45;4e29&#45;9417&#45;cf812b3945dd&#45;&gt;flow&#45;node&#45;9743bbc6&#45;14d6&#45;44b5&#45;9975&#45;41e2cf50851b</title>
<path fill="none" stroke="black" d="M638.39,-34.39C646.34,-33.8 654.35,-33.21 662.34,-32.61"/>
<polygon fill="black" stroke="black" points="662.4,-36.12 672.11,-31.89 661.88,-29.14 662.4,-36.12"/>
</g>
<!-- flow&#45;node&#45;f3dd91ca&#45;729f&#45;49b9&#45;b0d7&#45;65ed8d2f600f -->
<g id="node4" class="node">
<title>flow&#45;node&#45;f3dd91ca&#45;729f&#45;49b9&#45;b0d7&#45;65ed8d2f600f</title>
<polygon fill="none" stroke="black" points="1314.25,-41 1015.5,-41 1015.5,0 1314.25,0 1314.25,-41"/>
<text xml:space="preserve" text-anchor="middle" x="1164.88" y="-23.7" font-family="Times New Roman,serif" font-size="14.00">flow&#45;node&#45;f3dd91ca&#45;729f&#45;49b9&#45;b0d7&#45;65ed8d2f600f</text>
<text xml:space="preserve" text-anchor="middle" x="1164.88" y="-7.2" font-family="Times New Roman,serif" font-size="14.00">output</text>
</g>
<!-- flow&#45;node&#45;9743bbc6&#45;14d6&#45;44b5&#45;9975&#45;41e2cf50851b&#45;&gt;flow&#45;node&#45;f3dd91ca&#45;729f&#45;49b9&#45;b0d7&#45;65ed8d2f600f -->
<g id="edge5" class="edge">
<title>flow&#45;node&#45;9743bbc6&#45;14d6&#45;44b5&#45;9975&#45;41e2cf50851b&#45;&gt;flow&#45;node&#45;f3dd91ca&#45;729f&#45;49b9&#45;b0d7&#45;65ed8d2f600f</title>
<path fill="none" stroke="black" d="M979.59,-20.5C987.63,-20.5 995.72,-20.5 1003.79,-20.5"/>
<polygon fill="black" stroke="black" points="1003.65,-24 1013.65,-20.5 1003.65,-17 1003.65,-24"/>
</g>
</g>
</svg>
